<svg class="iconSet" id="CatIcons">
	<marker id="arrowhead" viewBox="6 12 60 90" refX="50" refY="50" markerUnits="strokeWidth" markerWidth="6" markerHeight="5" orient="auto">
		<path class="svgstr3" d="M10 20 L60 50 L10 80"/>
	</marker>
	<marker id="arrowheadRev" viewBox="6 12 60 90" refX="15" refY="50" markerUnits="strokeWidth" markerWidth="6" markerHeight="5" orient="auto">
		<path class="svgstr3" d="M60 20 L10 50 L60 80"/>
	</marker>
	<marker id="arrowheadWide" viewBox="0 -20 60 140" refX="50" refY="50" markerUnits="strokeWidth" markerWidth="6" markerHeight="5" orient="auto">
		<path class="svgstr4" d="M0 0 L80 50 L10 100"/>
	</marker>
	<symbol id="icon-add" class="icon" viewbox="0 0 320 320">
		<line class="arrow0" x1="160" y1="80" x2="160" y2="240"/>
		<line class="arrow0" x1="80" y1="160" x2="240" y2="160"/>
	</symbol>
	<symbol id="icon-alignHorizontal" class="icon" viewbox="0 0 320 320">
		<circle cx="80" cy="160" r="80" fill="url(#radgrad1)"/>
		<circle cx="160" cy="160" r="80" fill="url(#radgrad1)"/>
		<circle cx="240" cy="160" r="80" fill="url(#radgrad1)"/>
		<line class="arrow6" x1="0" y1="160" x2="320" y2="160"/>
	</symbol>
	<symbol id="icon-alignVertical" class="icon" viewbox="0 0 320 320">
		<circle cx="160" cy="80" r="80" fill="url(#radgrad1)"/>
		<circle cx="160" cy="160" r="80" fill="url(#radgrad1)"/>
		<circle cx="160" cy="240" r="80" fill="url(#radgrad1)"/>
		<line class="arrow6" x1="160" y1="0" x2="160" y2="320"/>
	</symbol>
	<symbol id="icon-assert" class="icon" viewbox="0 0 320 320">
		<path class="svgfilNone svgstr1" d="M 230 89 A 100 100 0 1 0 260 160" marker-end="url(#arrowhead)"/>
	</symbol>
	<symbol id="icon-cateapsis" class="icon" viewbox="0 0 320 320">
		<circle cx="160" cy="60" r="60" fill="url(#radgrad1)"/>
		<path class="svgstr4" d="M40,280 40,160 110,90" marker-end="url(#arrowhead)"/>
		<path class="svgstr4" d="M280,280 280,160 210,90" marker-end="url(#arrowhead)"/>
	</symbol>
	<symbol id="icon-category" class="icon" viewbox="0 0 320 320">
		<line class="arrow0" x1="40" y1="40" x2="260" y2="40" marker-end="url(#arrowhead)"/>
		<line class="arrow0" x1="260" y1="80" x2="260" y2="260" marker-end="url(#arrowhead)"/>
		<line class="arrow0" x1="40" y1="80" x2="220" y2="260" marker-end="url(#arrowhead)"/>
	</symbol>
	<symbol id="icon-chevronLeft" class="icon" viewbox="0 0 320 320">
		<path class="svgfilnone svgstr1" d="M120,40 80,160 120,280"/>
		<path class="svgfilnone svgstr1" d="M200,40 160,160 200,280"/>
	</symbol>
	<symbol id="icon-chevronRight" class="icon" viewbox="0 0 320 320">
		<path class="svgfilNone svgstr1" d="M120,40 160,160 120,280"/>
		<path class="svgfilNone svgstr1" d="M200,40 240,160 200,280"/>
	</symbol>
	<symbol id="icon-clock" class="icon" viewbox="0 0 320 320">
		<circle cx="160" cy="160" r="60" fill="url(#radgrad1)"/>
		<circle cx="160" cy="160" r="140" fill="none" stroke="#aaa" stroke-width="20px"/>
		<line class="arrow0 str0" x1="160" y1="160" x2="160" y2="40" marker-end="url(#arrowhead)"/>
		<line class="arrow0 str0" x1="160" y1="160" x2="260" y2="120" marker-end="url(#arrowhead)"/>
		<circle cx="160" cy="160" r="80" fill="url(#radgrad1)"/>
	</symbol>
	<symbol id="icon-close" class="icon" viewbox="0 0 320 320">
		<line class="arrow0 str0" x1="40" y1="40" x2="280" y2="280"/>
		<line class="arrow0 str0" x1="280" y1="40" x2="40" y2="280"/>
	</symbol>
	<symbol id="icon-composite" class="icon" viewbox="0 0 320 320">
		<line class="arrow9" x1="40" y1="40" x2="260" y2="40" marker-end="url(#arrowhead)"/>
		<line class="arrow9" x1="260" y1="80" x2="260" y2="260" marker-end="url(#arrowhead)"/>
		<line class="arrow0" x1="40" y1="80" x2="220" y2="260" marker-end="url(#arrowhead)"/>
	</symbol>
	<symbol id="icon-coproduct" class="icon" viewbox="0 0 320 320">
		<line class="arrow0" x1="160" y1="80" x2="160" y2="240"/>
		<line class="arrow0" x1="80" y1="160" x2="240" y2="160"/>
	</symbol>
	<symbol id="icon-coproductAssembly" class="icon" viewbox="0 0 320 320">
		<line class="arrow0" x1="60" y1="60" x2="280" y2="60" marker-end="url(#arrowhead)"/>
		<line class="arrow9" x1="280" y1="280" x2="280" y2="100" marker-end="url(#arrowhead)"/>
		<line class="arrow9" x1="120" y1="260" x2="240" y2="100" marker-end="url(#arrowhead)"/>
	</symbol>
	<symbol id="icon-coproductEdit" class="icon" viewbox="0 0 320 320">
		<line class="arrow0" x1="160" y1="80" x2="160" y2="240"/>
		<line class="arrow0" x1="80" y1="160" x2="240" y2="160"/>
	</symbol>
	<symbol id="icon-copy" class="icon" viewbox="0 0 320 320">
		<circle cx="200" cy="200" r="160" fill="#fff"/>
		<circle cx="200" cy="200" r="160" fill="url(#radgrad1)"/>
		<circle cx="120" cy="120" r="120" fill="url(#radgrad2)"/>
	</symbol>
	<symbol id="icon-cpp" class="icon" viewbox="0 0 320 320">
			<text text-anchor="middle" x="160" y="200" style="font-size:220px;font-weight:bold;stroke:#000;">C</text>
			<text text-anchor="middle" x="160" y="330" style="font-size:200px;font-weight:bold;stroke:#000;">++</text>
	</symbol>
	<symbol id="icon-delete" class="icon" viewbox="0 0 320 320">
		<line class="arrow0" x1="160" y1="40" x2="160" y2="230" marker-end="url(#arrowhead)"/>
		<path class="svgfilNone svgstr1" d="M90,190 A120,50 0 1,0 230,190"/>
	</symbol>
	<symbol id="icon-derive" class="icon" viewbox="0 0 320 320">
		<line class="arrow0" x1="60" y1="300" x2="60" y2="40" marker-end="url(#arrowhead)"/>
		<line class="arrow0" x1="60" y1="160" x2="260" y2="160" marker-end="url(#arrowhead)"/>
	</symbol>
	<symbol id="icon-detachCodomain" class="icon" viewbox="0 0 320 320">
		<circle cx="220" cy="200" r="60" fill="url(#radgrad1)"/>
		<circle cx="280" cy="160" r="60" fill="url(#radgrad1)"/>
		<line class="arrow0" x1="40" y1="160" x2="180" y2="200" marker-end="url(#arrowhead)"/>
	</symbol>
	<symbol id="icon-detachDomain" class="icon" viewbox="0 0 320 320">
		<circle cx="40" cy="160" r="60" fill="url(#radgrad1)"/>
		<circle cx="100" cy="200" r="60" fill="url(#radgrad1)"/>
		<line class="arrow0" x1="140" y1="200" x2="280" y2="160" marker-end="url(#arrowhead)"/>
	</symbol>
	<symbol id="icon-diagram" class="icon" viewbox="0 0 320 320">
		<line class="arrow0" x1="60" y1="40" x2="260" y2="40" marker-end="url(#arrowhead)"/>
		<line class="arrow0" x1="40" y1="60" x2="40" y2="260" marker-end="url(#arrowhead)"/>
		<line class="arrow0" x1="60" y1="280" x2="250" y2="280" marker-end="url(#arrowhead)"/>
		<line class="arrow0" x1="280" y1="60" x2="280" y2="250" marker-end="url(#arrowhead)"/>
	</symbol>
	<symbol id="icon-distribute" class="icon" viewbox="0 0 320 320">
		<circle class="svgstr4" cx="80" cy="80" r="60"/>
		<line class="arrow0" x1="38" y1="38" x2="122" y2="122"/>
		<line class="arrow0" x1="38" y1="122" x2="122" y2="38"/>
		<line class="arrow0" x1="240" y1="80" x2="80" y2="240"/>
		<circle class="svgstr4" cx="240" cy="240" r="60"/>
		<line class="arrow0" x1="198" y1="198" x2="282" y2="282"/>
		<line class="arrow0" x1="282" y1="198" x2="198" y2="282"/>
	</symbol>
	<symbol id="icon-down" class="icon" viewbox="0 0 320 320">
		<line class="arrow0" x1="160" y1="60" x2="160" y2="260" marker-end="url(#arrowhead)"/>
	</symbol>
	<symbol id="icon-downcloud" class="icon" viewbox="0 0 320 320">
		<circle cx="160" cy="80" r="80" fill="url(#radgrad1)"/>
		<line class="arrow0" x1="160" y1="160" x2="160" y2="300" marker-end="url(#arrowhead)"/>
	</symbol>
	<symbol id="icon-download" class="icon" viewbox="0 0 320 320">
		<line class="arrow0" x1="160" y1="40" x2="160" y2="160" marker-end="url(#arrowhead)"/>
	</symbol>
	<symbol id="icon-download2" class="icon" viewbox="0 0 320 320">
		<line class="arrow0" x1="160" y1="40" x2="160" y2="160" marker-end="url(#arrowhead)"/>
		<circle cx="160" cy="240" r="80" fill="url(#radgrad1)"/>
	</symbol>
	<symbol id="icon-edit" class="icon" viewbox="0 0 320 320">
		<path class="svgstr4" d="M280 40 160 280 80 240" marker-end="url(#arrowhead)"/>
	</symbol>
	<symbol id="icon-evaluate" class="icon" viewbox="0 0 320 320">
		<circle cx="80" cy="80" r="60" fill="url(#radgrad1)"/>
		<circle cx="160" cy="80" r="60" fill="url(#radgrad1)"/>
		<polyline class="svgstr3" points="50,40 30,40 30,120 50,120"/>
		<polyline class="svgstr3" points="190,40 210,40 210,120 190,120"/>
		<circle cx="260" cy="80" r="60" fill="url(#radgrad1)"/>
		<circle cx="160" cy="280" r="60" fill="url(#radgrad1)"/>
		<path class="svgfilNone svgstrThinGray" d="M80 100 A40 40 1 0 0 260 100"/>
		<line class="svgstrThinGray" x1="160" y1="100" x2="160" y2="170"/>
		<line class="svgstrThinGray" x1="160" y1="210" x2="160" y2="250"/>
	</symbol>
	<symbol id="icon-finiteObject" class="icon" viewbox="0 0 320 320">
		<circle cx="80" cy="80" r="60" fill="url(#radgrad2)"/>
		<circle cx="80" cy="160" r="60" fill="url(#radgrad1)"/>
		<circle cx="80" cy="240" r="60" fill="url(#radgrad2)"/>
		<circle cx="160" cy="80" r="60" fill="url(#radgrad1)"/>
		<circle cx="160" cy="160" r="60" fill="url(#radgrad1)"/>
		<circle cx="160" cy="240" r="60" fill="url(#radgrad1)"/>
		<circle cx="240" cy="80" r="60" fill="url(#radgrad2)"/>
		<circle cx="240" cy="160" r="60" fill="url(#radgrad1)"/>
		<circle cx="240" cy="240" r="60" fill="url(#radgrad2)"/>
	</symbol>
	<symbol id="icon-flipName" class="icon" viewbox="0 0 320 320">
		<line class="arrow0" x1="160" y1="40" x2="160" y2="280"/>
		<line class="arrow0" x1="80" y1="120" x2="80" y2="220"/>
		<line class="arrow0" x1="240" y1="120" x2="240" y2="220"/>
		<line class="arrow0" x1="40" y1="120" x2="120" y2="120"/>
		<line class="arrow0" x1="200" y1="120" x2="280" y2="120"/>
	</symbol>
	<symbol id="icon-functor" class="icon" viewbox="0 0 320 320">
		<line class="arrow0" x1="40" y1="40" x2="40" y2="280" marker-end="url(#arrowhead)"/>
		<line class="arrow0" x1="80" y1="160" x2="240" y2="160" marker-end="url(#arrowhead)"/>
		<line class="arrow0" x1="280" y1="40" x2="280" y2="280" marker-end="url(#arrowhead)"/>
	</symbol>
	<symbol id="icon-graph" class="icon" viewbox="0 0 320 320">
		<line class="arrow0" x1="60" y1="40" x2="260" y2="200"/>
		<path class="svgstr4" d="M60,120 C120,120 120,200 60,200"/>
		<path class="svgstr4" d="M260,40 C200,40 200,120 260,120"/>
		<line class="arrow0" x1="60" y1="260" x2="260" y2="260"/>
	</symbol>
	<symbol id="icon-help" class="icon" viewbox="0 0 320 320">
		<circle cx="160" cy="240" r="60" fill="url(#radgrad1)"/>
		<path class="svgstr4" d="M110,120 C100,40 280,40 210,120 S170,170 160,200"/>
	</symbol>
	<symbol id="icon-identity" class="icon" viewbox="0 0 320 320">
		<line class="arrow0" x1="160" y1="60" x2="120" y2="100"/>
		<line class="arrow0" x1="130" y1="260" x2="190" y2="260"/>
		<line class="arrow0" x1="160" y1="60" x2="160" y2="260"/>
	</symbol>
	<symbol id="icon-hom" class="icon" viewbox="0 0 320 320">
		<path class="arrow0" d="M100 80 L80 80 L80 240 L 100 240"/>
		<path class="arrow0" d="M220 80 L240 80 L240 240 L 220 240"/>
		<line class="arrow0rnd" x1="170" y1="240" x2="150" y2="260"/>
	</symbol>
	<symbol id="icon-homLeft" class="icon" viewbox="0 0 320 320">
		<circle cx="260" cy="160" r="60" fill="url(#radgrad1)"/>
		<line class="arrow0" x1="30" y1="160" x2="200" y2="160" marker-end="url(#arrowhead)"/>
	</symbol>
	<symbol id="icon-homRight" class="icon" viewbox="0 0 320 320">
		<circle cx="60" cy="160" r="60" fill="url(#radgrad1)"/>
		<line class="arrow0" x1="110" y1="160" x2="280" y2="160" marker-end="url(#arrowhead)"/>
	</symbol>
	<symbol id="icon-homset" class="icon" viewbox="0 0 320 320">
		<circle cx="260" cy="160" r="60" fill="url(#radgrad1)"/>
		<circle cx="60" cy="160" r="60" fill="url(#radgrad1)"/>
		<line class="arrow0" x1="100" y1="160" x2="200" y2="160" marker-end="url(#arrowhead)"/>
	</symbol>
	<symbol id="icon-inject" class="icon" viewbox="0 0 320 320">
		<circle cx="60" cy="160" r="60" fill="url(#radgrad1)"/>
		<line class="arrow0" x2="110" y2="120" x1="240" y1="40" marker-end="url(#arrowhead)"/>
		<line class="arrow0" x2="110" y2="160" x1="280" y1="160" marker-end="url(#arrowhead)"/>
		<line class="arrow0" x2="110" y2="200" x1="240" y1="280" marker-end="url(#arrowhead)"/>
	</symbol>
	<symbol id="icon-io" class="icon" viewbox="0 0 320 320">
		<line class="arrow0" x1="100" y1="160" x2="220" y2="160" marker-end="url(#arrowhead)"/>
		<polygon points="0 0, 120 160, 0 320" fill="url(#radgrad1)"/>
		<polygon points="320 0, 200 160, 320 320" fill="url(#radgrad1)"/>
	</symbol>
	<symbol id="icon-javascript" class="icon" viewbox="0 0 320 320">
			<text text-anchor="middle" x="160" y="280" style="font-size:240px;font-weight:bold;stroke:#000;">JS</text>
	</symbol>
	<symbol id="icon-lambda" class="icon" viewbox="0 0 320 320">
		<line class="arrow0" x1="40" y1="40" x2="280" y2="280" marker-end="url(#arrowhead)"/>
		<line class="arrow0" x1="40" y1="280" x2="140" y2="180" marker-end="url(#arrowhead)"/>
	</symbol>
	<symbol id="icon-lambda2" class="icon" viewbox="0 0 320 320">
		<circle cx="160" cy="160" r="60" fill="url(#radgrad1)"/>
		<line class="arrow0" x1="120" y1="120" x2="40" y2="40" marker-end="url(#arrowhead)"/>
		<line class="arrow0" x1="200" y1="200" x2="280" y2="280" marker-end="url(#arrowhead)"/>
		<line class="arrow0" x1="120" y1="200" x2="40" y2="280" marker-end="url(#arrowhead)"/>
	</symbol>
	<symbol id="icon-login" class="icon" viewbox="0 0 320 320">
		<polyline class="svgstr4" points="160,60 160,200 70,280 70,40 250,40 250,280"/>
	</symbol>
	<symbol id="icon-morphism" class="icon" viewbox="0 0 320 320">
		<line class="arrow0" x1="60" y1="160" x2="260" y2="160" marker-end="url(#arrowhead)"/>
	</symbol>
	<symbol id="icon-morphismAssembly" class="icon" viewbox="0 0 320 320">
		<line class="arrow0" x1="40" y1="60" x2="300" y2="60" marker-end="url(#arrowhead)"/>
		<line class="arrow0" x1="40" y1="260" x2="140" y2="100" marker-end="url(#arrowhead)"/>
		<line class="arrow0" x1="180" y1="100" x2="280" y2="260" marker-end="url(#arrowhead)"/>
	</symbol>
	<symbol id="icon-move" class="icon" viewbox="0 0 320 320">
		<line class="svgfilNone arrow0-30px" x1="60" y1="80" x2="240" y2="80" />
		<line class="svgfilNone arrow0-30px" x1="60" y1="160" x2="240" y2="160" />
		<line class="svgfilNone arrow0-30px" x1="60" y1="240" x2="240" y2="240" />
	</symbol>
	<symbol id="icon-mysql" class="icon" viewbox="0 0 320 320">
		<text text-anchor="middle" x="160" y="160" style="font-size:180px;font-weight:bold;stroke:#000;">My</text>
		<text text-anchor="middle" x="160" y="300" style="font-size:180px;font-weight:bold;stroke:#000;">SQL</text>
	</symbol>
	<symbol id="icon-name" class="icon" viewbox="0 0 320 320">
		<circle cx="80" cy="240" r="90" fill="url(#radgrad1)"/>
		<path class="svgstr4" d="M110,180 L170,120"/>
		<path class="svgstr4" d="M140,210 L200,150"/>
		<path class="svgstr3" d="M220,130 L260,40 L300,130"/>
		<line class="svgstr3" x1="235" y1="95" x2="285" y2="95"/>
	</symbol>
	<symbol id="icon-new" class="icon" viewbox="0 0 320 320">
		<circle class="svgstr3" cx="80" cy="70" r="70"/>
		<line class="svgfilNone arrow0" x1="80" y1="20" x2="80" y2= "120" />
		<line class="svgfilNone arrow0" x1="30" y1="70" x2="130" y2= "70" />
	</symbol>
	<symbol id="icon-object" class="icon" viewbox="0 0 320 320">
		<circle cx="160" cy="160" r="160" fill="url(#radgrad1)"/>
	</symbol>
	<symbol id="icon-play" class="icon" viewbox="0 0 320 320">
		<text text-anchor="middle" x="160" y="260" style="font-size:240px;stroke:#000;">&#9654;</text>
	</symbol>
	<symbol id="icon-product" class="icon" viewbox="0 0 320 320">
		<line class="arrow0" x1="103" y1="216" x2="216" y2="103"/>
		<line class="arrow0" x1="216" y1="216" x2="103" y2="103"/>
	</symbol>
	<symbol id="icon-productAssembly" class="icon" viewbox="0 0 320 320">
		<line class="arrow0" x1="40" y1="60" x2="280" y2="60" marker-end="url(#arrowhead)"/>
		<line class="arrow9" x1="40" y1="80" x2="40" y2="280" marker-end="url(#arrowhead)"/>
		<line class="arrow9" x1="60" y1="80" x2="160" y2="240" marker-end="url(#arrowhead)"/>
	</symbol>
	<symbol id="icon-productEdit" class="icon" viewbox="0 0 320 320">
		<line class="arrow0" x1="103" y1="216" x2="216" y2="103"/>
		<line class="arrow0" x1="216" y1="216" x2="103" y2="103"/>
	</symbol>
	<symbol id="icon-project" class="icon" viewbox="0 0 320 320">
		<circle cx="60" cy="160" r="60" fill="url(#radgrad1)"/>
		<line class="arrow0" x1="110" y1="120" x2="240" y2="40" marker-end="url(#arrowhead)"/>
		<line class="arrow0" x1="110" y1="160" x2="280" y2="160" marker-end="url(#arrowhead)"/>
		<line class="arrow0" x1="110" y1="200" x2="240" y2="280" marker-end="url(#arrowhead)"/>
	</symbol>
	<symbol id="icon-pullback" class="icon" viewbox="0 0 320 320">
		<path class="svgstr4" d="M60,160 160,160 160,60"/>
		<line class="arrow0" x1="60" y1="280" x2="250" y2="280" marker-end="url(#arrowhead)"/>
		<line class="arrow0" x1="280" y1="60" x2="280" y2="250" marker-end="url(#arrowhead)"/>
	</symbol>
	<symbol id="icon-pushout" class="icon" viewbox="0 0 320 320">
		<line class="arrow0" x1="60" y1="40" x2="260" y2="40" marker-end="url(#arrowhead)"/>
		<line class="arrow0" x1="40" y1="60" x2="40" y2="260" marker-end="url(#arrowhead)"/>
		<path class="svgstr4" d="M160,260 160,160 260,160"/>
	</symbol>
	<symbol id="icon-recursion" class="icon" viewbox="0 0 320 320">
		<line class="arrow0" x1="40" y1="60" x2="280" y2="60" marker-end="url(#arrowhead)"/>
		<line class="arrow3" x1="40" y1="120" x2="240" y2="120" marker-end="url(#arrowhead)"/>
		<line class="arrow6" x1="40" y1="180" x2="200" y2="180" marker-end="url(#arrowhead)"/>
		<line class="arrow9" x1="40" y1="240" x2="160" y2="240" marker-end="url(#arrowhead)"/>
	</symbol>
	<symbol id="icon-reference" class="icon" viewbox="0 0 320 320">
		<line class="arrow0" x1="20" y1="180" x2="150" y2="180" marker-end="url(#arrowhead)"/>
		<line class="arrow0" x1="180" y1="10" x2="180" y2="150" marker-end="url(#arrowhead)"/>
		<line class="arrow0" x1="20" y1="260" x2="230" y2="260" marker-end="url(#arrowhead)"/>
		<line class="arrow0" x1="260" y1="10" x2="260" y2="230" marker-end="url(#arrowhead)"/>
	</symbol>
	<symbol id="icon-run" class="icon" viewbox="0 0 320 320">
		<animateTransform id="RunAction btn" attributeName="transform" type="rotate" from="0 160 160" to="360 160 160" dur="0.5s" repeatCount="1" begin="indefinite"/>
		<line class="arrow0" x1="20" y1="80" x2="180" y2="80" marker-end="url(#arrowhead)"/>
		<line class="arrow0" x1="80" y1="160" x2="240" y2="160" marker-end="url(#arrowhead)"/>
		<line class="arrow0" x1="140" y1="240" x2="300" y2="240" marker-end="url(#arrowhead)"/>
	</symbol>
	<symbol id="icon-save" class="icon" viewbox="0 0 320 320">
		<text text-anchor="middle" x="160" y="260" style="font-size:240px;stroke:#000;">&#128190;</text>
	</symbol>
	<symbol id="icon-search" class="icon" viewbox="0 0 320 320">
		<circle class="search" cx="240" cy="80" r="120"/>
		<line class="arrow0" x1="20" y1="300" x2="220" y2="120" marker-end="url(#arrowhead)"/>
	</symbol>
	<symbol id="icon-settings" class="icon" viewbox="0 0 320 320">
		<line class="arrow0" x1="40" y1="160" x2="280" y2="160" marker-start="url(#arrowheadRev)" marker-end="url(#arrowhead)"/>
		<line class="arrow0" x1="160" y1="40" x2="160" y2="280" marker-start="url(#arrowheadRev)" marker-end="url(#arrowhead)"/>
		<line class="arrow0" x1="80" y1="60" x2="240" y2="260" marker-start="url(#arrowheadRev)" marker-end="url(#arrowhead)"/>
		<line class="arrow0" x1="80" y1="260" x2="240" y2="60" marker-start="url(#arrowheadRev)" marker-end="url(#arrowhead)"/>
		<circle class="svgfil4" cx="160" cy="160" r="60"/>
		<circle cx="160" cy="160" r="60" fill="url(#radgrad1)"/>
	</symbol>
	<symbol id="icon-string" class="icon" viewbox="0 0 320 320">
		<line class="arrow0" x1="60" y1="40" x2="260" y2="200"/>
		<path class="svgstr4" d="M60,120 C120,120 120,200 60,200"/>
		<path class="svgstr4" d="M260,40 C200,40 200,120 260,120"/>
		<line class="arrow0" x1="60" y1="260" x2="260" y2="260"/>
	</symbol>
	<symbol id="icon-table" class="icon" viewbox="0 0 320 320">
		<circle cx="80" cy="80" r="60" fill="url(#radgrad2)"/>
		<circle cx="80" cy="160" r="60" fill="url(#radgrad1)"/>
		<circle cx="80" cy="240" r="60" fill="url(#radgrad2)"/>
		<circle cx="160" cy="80" r="60" fill="url(#radgrad1)"/>
		<circle cx="160" cy="160" r="60" fill="url(#radgrad1)"/>
		<circle cx="160" cy="240" r="60" fill="url(#radgrad1)"/>
		<circle cx="240" cy="80" r="60" fill="url(#radgrad2)"/>
		<circle cx="240" cy="160" r="60" fill="url(#radgrad1)"/>
		<circle cx="240" cy="240" r="60" fill="url(#radgrad2)"/>
	</symbol>
	<symbol id="icon-tensor" class="icon" viewbox="0 0 320 320">
		<line class="arrow0" x1="103" y1="216" x2="216" y2="103"/>
		<line class="arrow0" x1="216" y1="216" x2="103" y2="103"/>
		<circle cx="160" cy="160" r="80" class="svgfilNone svgstr1"/>
	</symbol>
	<symbol id="icon-text" class="icon" viewbox="0 0 320 320">
		<line class="arrow0" x1="40" y1="60" x2="280" y2="60" marker-end="url(#arrowhead)"/>
		<line class="arrow0" x1="160" y1="280" x2="160" y2="60"/>
	</symbol>
	<symbol id="icon-threeD" class="icon" viewbox="0 0 320 320">
		<line class="arrow0" x1="120" y1="180" x2="280" y2="180" marker-end="url(#arrowhead)"/>
		<line class="arrow0" x1="120" y1="180" x2="120" y2="40" marker-end="url(#arrowhead)"/>
		<line class="arrow0" x1="120" y1="180" x2="40" y2="280" marker-end="url(#arrowhead)"/>
	</symbol>
	<symbol id="icon-threeD_bottom" class="icon" viewbox="0 0 320 320">
		<polygon class="svgfil1" points="120,180 280,180 200,280 40,280"/>
		<use href="#threeD_base" x="0" y="0"/>
	</symbol>
	<symbol id="icon-threeD_front" class="icon" viewbox="0 0 320 320">
		<polygon class="svgfil1" points="40,120 200,120 200,280 40,280"/>
		<use href="#threeD_base" x="0" y="0"/>
	</symbol>
	<symbol id="icon-threeD_back" class="icon" viewbox="0 0 320 320">
		<polygon class="svgfil1" points="120,40 280,40 280,180 120,180"/>
		<use href="#threeD_base" x="0" y="0"/>
	</symbol>
	<symbol id="icon-threeD_top" class="icon" viewbox="0 0 320 320">
		<polygon class="svgfil1" points="120,40 280,40 200,140 40,140"/>
		<use href="#threeD_base" x="0" y="0"/>
	</symbol>
	<symbol id="icon-threeD_left" class="icon" viewbox="0 0 320 320">
		<polygon class="svgfil1" points="120,20 120,180 40,280 40,120"/>
		<use href="#threeD_base" x="0" y="0"/>
	</symbol>
	<symbol id="icon-threeD_right" class="icon" viewbox="0 0 320 320">
		<polygon class="svgfil1" points="280,20 280,180 200,280 200,120"/>
		<use href="#threeD_base" x="0" y="0"/>
	</symbol>
	<symbol id="icon-transform" class="icon" viewbox="0 0 320 320">
		<circle cx="50" cy="160" r="60" fill="url(#radgrad1)"/>
		<line class="arrow0" x1="100" y1="160" x2="240" y2="160" marker-end="url(#arrowhead)"/>
		<line class="arrow0" x1="280" y1="40" x2="280" y2="280" marker-end="url(#arrowhead)"/>
	</symbol>
	<symbol id="icon-tty" class="icon" viewbox="0 0 320 320">
		<path class="svgstrThinGray" d="M70,40 240,40 240,280 70,280 70,40"/>
		<line class="svgstr3" x1="90" y1="80" x2="220" y2="80"/>
		<line class="svgstr3" x1="90" y1="120" x2="200" y2="120"/>
		<line class="svgstr3" x1="90" y1="160" x2="160" y2="160"/>
		<line class="svgstr3" x1="90" y1="200" x2="120" y2="200"/>
	</symbol>
	<symbol id="icon-lock" class="icon" viewbox="0 0 320 320">
		<rect class="svgfil5" x="20" y="20" width="280" height="280"/>
		<line class="arrow0" x1="60" y1="60" x2="260" y2="260" marker-start="url(#arrowheadRev)" marker-end="url(#arrowhead)"/>
		<line class="arrow0" x1="60" y1="260" x2="260" y2="60" marker-start="url(#arrowheadRev)" marker-end="url(#arrowhead)"/>
		<circle class="svgfil4" cx="160" cy="160" r="40"/>
	</symbol>
	<symbol id="icon-unlock" class="icon" viewbox="0 0 320 320">
		<line class="arrow0" x1="40" y1="40" x2="280" y2="280" marker-start="url(#arrowheadRev)" marker-end="url(#arrowhead)"/>
		<line class="arrow0" x1="40" y1="280" x2="280" y2="40" marker-start="url(#arrowheadRev)" marker-end="url(#arrowhead)"/>
		<rect class="svgfil5" x="120" y="120" width="80" height="80"/>
	</symbol>
	<symbol id="icon-up" class="icon" viewbox="0 0 320 320">
		<line class="arrow0" x1="160" y1="260" x2="160" y2="60" marker-end="url(#arrowhead)"/>
	</symbol>
	<symbol id="icon-upload" class="icon" viewbox="0 0 320 320">
		<circle cx="160" cy="80" r="100" fill="url(#radgrad1)"/>
		<line class="arrow0" x1="160" y1="300" x2="160" y2="160" marker-end="url(#arrowhead)"/>
	</symbol>
	<symbol id="icon-view" class="icon" viewbox="0 0 320 320">
		<circle cx="160" cy="160" r="120" fill="url(#radgrad1)"/>
		<path class="svgfilNone svgstrThinGray" d="M20 160 A40 25 0 0 0 300 160 A40 25 0 0 0 20 160" marker-end="url(#arrowheadWide)"/>
	</symbol>
</svg>
